<?xml version="1.0" standalone="no"?><!-- Generator: Gravit.io --><svg xmlns="http://www.w3.org/2000/svg" xmlns:xlink="http://www.w3.org/1999/xlink" style="isolation:isolate" viewBox="0 0 360 300" width="360" height="300"><defs><clipPath id="_clipPath_UAaqaweGChawemfl8XEV1dTq7It9IEZB"><rect width="360" height="300"/></clipPath></defs><g clip-path="url(#_clipPath_UAaqaweGChawemfl8XEV1dTq7It9IEZB)"><g><ellipse vector-effect="non-scaling-stroke" cx="277.00000000000006" cy="252.5" rx="27.026943851274993" ry="21.5" fill="rgb(255,255,255)"/><ellipse vector-effect="non-scaling-stroke" cx="85" cy="252.5" rx="27.026943851274982" ry="21.5" fill="rgb(255,255,255)"/><path d="M 58.519 134.546 L 301.481 134.546 C 322.74 134.546 340 151.806 340 173.065 L 340 245 L 20 245 L 20 173.065 C 20 151.806 37.26 134.546 58.519 134.546 Z" style="stroke:none;fill:#FFFFFF;stroke-miterlimit:10;"/><path d=" M 112.098 53.246 L 112.098 17 L 249.973 17 L 249.973 53.246 L 112.098 53.246 Z " fill="rgb(255,255,255)"/><path d="M 113.843 17.75 L 119.974 18.947 L 93.547 154.266 L 57.973 147.319 L 78.65 41.444 C 81.823 25.193 97.593 14.577 113.843 17.75 Z" style="stroke:none;fill:#FFFFFF;stroke-miterlimit:10;"/><path d="M 302.09 148.38 L 266.406 154.737 L 242.227 18.998 L 248.377 17.903 C 264.677 14.999 280.269 25.876 283.173 42.177 L 302.09 148.38 Z" style="stroke:none;fill:#FFFFFF;stroke-miterlimit:10;"/><ellipse vector-effect="non-scaling-stroke" cx="277.00000000000006" cy="189.77314295466317" rx="27.026943851274993" ry="21.5" fill="rgb(207,42,39)"/><ellipse vector-effect="non-scaling-stroke" cx="84.99999999999997" cy="189.77314295466317" rx="27.026943851274982" ry="21.5" fill="rgb(56,118,29)"/></g></g></svg>